HIERARCHY
ROOT Hips
{
	OFFSET	0.00	0.00	0.00
	CHANNELS 6 Xposition Yposition Zposition Zrotation Xrotation Yrotation
	JOINT Spine
	{
		OFFSET	 0.00	0.01	 0.00
		CHANNELS 3 Zrotation Xrotation Yrotation
		JOINT Spine1
		{
			OFFSET	 0.00	 2.45913012437421	 0.00
			CHANNELS 3 Zrotation Xrotation Yrotation
            JOINT Neck
            {
                OFFSET	 0.00	 2.48462964506057	 0.00
                CHANNELS 3 Zrotation Xrotation Yrotation
                JOINT Head
                {
                    OFFSET	 0.00	 0.927524780924562	 0.00
                    CHANNELS 3 Zrotation Xrotation Yrotation
                    End Site 
                    {
                        OFFSET	 0.00	 1.14999962169752	 0.00
                    }
                }
            }
			JOINT LeftShoulder
			{
				OFFSET	 0.00	 2.48462964506057	 0.00
				CHANNELS 3 Zrotation Xrotation Yrotation
				JOINT LeftUpArm
				{
					OFFSET	 0.00	 1.24881979654096	 0.00
					CHANNELS 3 Zrotation Xrotation Yrotation
					JOINT LeftForeArm
					{
						OFFSET	 0.00	2.59758046908119	 0.00
						CHANNELS 3 Zrotation Xrotation Yrotation
						JOINT LeftHand
						{
							OFFSET	 0.00	2.45542024364365	 0.00
							CHANNELS 3 Zrotation Xrotation Yrotation
							JOINT LeftHandThumb 
							{
								OFFSET	 0.00	0.00	 0.00
								CHANNELS 3 Zrotation Xrotation Yrotation
								End Site
								{
									OFFSET	 0.00	0.00	1.00000003353624
								}
							}
							JOINT L_Wrist_End 
							{
								OFFSET	 0.00	0.99999967115358	 0.00
								CHANNELS 3 Zrotation Xrotation Yrotation
								End Site 
								{
									OFFSET	 0.00	 0.00	 0.00
								}
							}
						}
					}
				}
			}
			JOINT RightShoulder
			{
				OFFSET	 0.00	 2.48462964506057	 0.00
				CHANNELS 3 Zrotation Xrotation Yrotation
				JOINT RightUpArm
				{
					OFFSET	 0.00	 1.24881979654096	 0.00
					CHANNELS 3 Zrotation Xrotation Yrotation
					JOINT RightForeArm
					{
						OFFSET	 0.00	2.59758046908119	 0.00
						CHANNELS 3 Zrotation Xrotation Yrotation
						JOINT RightHand
						{
							OFFSET	 0.00	2.45542024364365	 0.00
							CHANNELS 3 Zrotation Xrotation Yrotation
							JOINT RightHandThumb 
							{
								OFFSET	 0.00	0.00	 0.00
								CHANNELS 3 Zrotation Xrotation Yrotation
								End Site
								{
									OFFSET	 0.00	0.00	1.00000003353624
								}
							}
							JOINT R_Wrist_End 
							{
								OFFSET	 0.00	0.99999967115358	 0.00
								CHANNELS 3 Zrotation Xrotation Yrotation
								End Site 
								{
									OFFSET	 0.00	 0.00	 0.00
								}
							}
						}
					}
				}
			}
		}
	}
	JOINT LeftUpLeg
	{
		OFFSET	 1.2719394002717	 0.00	 0.00
		CHANNELS 3 Zrotation Xrotation Yrotation
		JOINT LeftLowLeg
		{
			OFFSET	 0.00	-4.3429100912261	 0.00
			CHANNELS 3 Zrotation Xrotation Yrotation
			JOINT LeftFoot
			{
				OFFSET	 0.00	-4.48767017425826	 0.00
				CHANNELS 3 Zrotation Xrotation Yrotation
				JOINT LeftToeBase
                {
                    OFFSET	 0.00	0.00	 1.51507020887566
                    CHANNELS 3 Zrotation Xrotation Yrotation
                    End Site 
                    {
                        OFFSET	 0.00	0.00	 0.75000010571191
                    }
                }
			}
		}
	}
	JOINT RightUpLeg
	{
		OFFSET	 -1.2719393604653	 0.00	 0.00
		CHANNELS 3 Zrotation Xrotation Yrotation
		JOINT RightLowLeg
		{
			OFFSET	 0.00	-4.3429100912261	 0.00
			CHANNELS 3 Zrotation Xrotation Yrotation
			JOINT RightFoot
			{
				OFFSET	 0.00	-4.48767017425826	 0.00
				CHANNELS 3 Zrotation Xrotation Yrotation
				JOINT RightToeBase
                {
                    OFFSET	 0.00	0.00	 1.51507020887566
                    CHANNELS 3 Zrotation Xrotation Yrotation
                    End Site 
                    {
                        OFFSET	 0.00	0.00	 0.749999965609858
                    }
                }   
			}
		}
	}
}
MOTION 
Frames:	18 
Frame Time: 0.02 
 2.717139892578125 11.856500244140625 10.556300048828126 -47.0609 80.9944 40.2752 0.920454 -19.3545 -4.83071 12.4277 30.4674 1.07144 -12.8504 34.0933 3.38351 21.8083 -73.0342 16.0608 -125.0203 1.08293 -8.96406 -33.9052 -3.57867 -144.946 0.0 -35.2865 0.0 5.14225 5.60529 179.452 0.0 0.0 0.0 0.0 0.0 0.0 111.7708 -0.223805 3.25371 39.4038 1.06111 -23.6785 0.0 20.472 0.0 3.09356 -1.80567 1.73578 0.0 0.0 0.0 0.0 0.0 0.0 9.7788 13.8508 16.3893 0.0 4.2626 0.0 -9.45138 4.8396997 8.60537 0.0 -9.22397 0.0 7.54617 9.12865 7.11274 0.0 8.43271 0.0 15.4309 10.34449 -20.8578 0.0 -11.96644 0.0 
  2.7134500122070313 11.85300048828125 10.555 -48.1756 81.0591 40.9329 1.03167 -19.2954 -4.833 12.5421 30.246 1.10328 -12.7455 34.473 3.25708 21.7975 -72.8546 16.2215 -125.1325 1.1364 -9.19794 -34.0231 -3.81815 -144.777 0.0 -34.3088 0.0 5.2379 5.55464 179.466 0.0 0.0 0.0 0.0 0.0 0.0 111.764496 -0.326638 3.23817 39.5231 0.897791 -23.4807 0.0 20.2267 0.0 2.7872 -1.95127 2.03853 0.0 0.0 0.0 0.0 0.0 0.0 9.7523 14.088 16.739 0.0 3.80777 0.0 -9.61997 4.9847 8.5088 0.0 -9.2225 0.0 7.59733 8.84244 7.18541 0.0 8.70986 0.0 15.1794 10.370211 -20.6133 0.0 -12.3668 0.0 
  2.7071099853515626 11.851400146484375 10.553299560546876 -49.3583 81.1425 41.6275 1.1037 -19.2209 -4.89016 12.7033 29.9634 1.14237 -12.8266 35.0077 3.29261 21.7172 -72.607 16.2481 -125.3581 1.11957 -9.25136 -33.9602 -3.7683 -144.024 0.0 -33.1583 0.0 5.21058 5.63625 178.578 0.0 0.0 0.0 0.0 0.0 0.0 111.6881 -0.384986 3.27007 39.7196 0.666409 -23.4015 0.0 20.1063 0.0 2.07756 -2.19813 1.6252 0.0 0.0 0.0 0.0 0.0 0.0 9.72701 14.3533 17.0443 0.0 3.27946 0.0 -9.87146 5.13859 8.37627 0.0 -9.20668 0.0 7.67245 8.49474 7.4335 0.0 9.05878 0.0 14.949 10.33811 -20.5065 0.0 -12.9994 0.0 
  2.697139892578125 11.850899658203126 10.551199951171874 -51.1585 81.2508 42.8621 1.05969 -19.1241 -5.07349 13.1654 29.5792 1.29975 -13.2116 35.5009 3.55474 21.2518 -72.3502 15.7947 -125.851 1.09065 -9.13293 -33.711 -3.55059 -142.766 0.0 -31.9482 0.0 4.73459 6.01195 177.853 0.0 0.0 0.0 0.0 0.0 0.0 111.4556 -0.532949 3.19948 39.9269 0.493492 -23.2351 0.0 20.2329 0.0 1.41733 -2.8009 1.25034 0.0 0.0 0.0 0.0 0.0 0.0 9.72801 14.5629 17.2014 0.0 2.71127 0.0 -10.1904 5.2661896 8.52645 0.0 -9.112061 0.0 7.82169 8.04004 7.91387 0.0 9.44328 0.0 14.812 10.27526 -20.532 0.0 -13.69861 0.0 
  2.6841500854492186 11.851400146484375 10.548900146484375 -52.5587 81.3717 43.7872 0.948435 -18.9939 -5.32085 13.5767 29.1993 1.40634 -13.4914 36.2271 3.67241 20.9361 -72.0903 15.5063 -126.2941 0.988317 -8.93919 -33.4161 -3.13578 -140.879 0.0 -30.6099 0.0 4.04765 6.1333 176.234 0.0 0.0 0.0 0.0 0.0 0.0 111.2535 -0.602071 3.13078 40.1312 0.28445 -23.1617 0.0 20.3529 0.0 0.553694 -2.8964 0.326637 0.0 0.0 0.0 0.0 0.0 0.0 9.6987 14.7792 17.5049 0.0 2.11956 0.0 -10.4619 5.4798403 8.54938 0.0 -9.14036 0.0 7.92259 7.52924 7.85965 0.0 9.99995 0.0 14.5121 10.2380905 -20.1514 0.0 -14.228964 0.0 
  2.665199890136719 11.850799560546875 10.546700439453126 -53.7489 81.4749 44.6533 0.721947 -18.8536 -5.70952 14.0425 28.8041 1.45549 -13.7612 36.9652 3.73858 20.4499 -71.7774 15.0224 -126.751205 0.85713 -8.60126 -32.9745 -2.5617 -138.185 0.0 -29.4242 0.0 2.96708 6.64906 174.198 0.0 0.0 0.0 0.0 0.0 0.0 111.0246 -0.654866 2.95239 40.441 0.140656 -22.729 0.0 20.484 0.0 -0.249894 -3.16541 0.922028 0.0 0.0 0.0 0.0 0.0 0.0 9.7293 14.9594 17.5927 0.0 1.60157 0.0 -10.7147 5.68591 8.62039 0.0 -9.0414 0.0 8.07123 7.16296 8.00061 0.0 10.3788 0.0 14.3228 10.160271 -20.0735 0.0 -14.517248 0.0 
  2.6411199951171875 11.84719970703125 10.544300537109375 -54.6193 81.5713 45.3961 0.468165 -18.7158 -6.17238 14.3792 28.5285 1.31888 -14.1692 37.5399 4.06925 20.2811 -71.5176 14.7799 -127.111404 0.515609 -8.31499 -32.3766 -1.69106 -134.297 0.0 -28.3877 0.0 1.52888 7.11553 171.247 0.0 0.0 0.0 0.0 0.0 0.0 110.8744 -0.754688 2.9079 40.8087 0.0827999 -22.2635 0.0 20.6465 0.0 -0.689809 -3.28416 0.858299 0.0 0.0 0.0 0.0 0.0 0.0 9.8166 15.0975 17.5668 0.0 1.16228 0.0 -10.99 5.8898 8.63935 0.0 -9.04998 0.0 8.22924 6.91375 8.06672 0.0 10.6514 0.0 14.1865 10.06828 -20.0026 0.0 -15.030508 0.0 
  2.612330017089844 11.8468994140625 10.541700439453125 -55.6082 81.6664 46.1932 0.263539 -18.5521 -6.57647 14.6432 28.2005 1.21032 -14.6313 38.2871 4.42895 20.3437 -71.3931 14.8198 -127.476 -0.0250408 -7.88708 -31.5948 -0.246605 -128.488 0.0 -27.3279 0.0 -0.569889 7.3508 166.767 0.0 0.0 0.0 0.0 0.0 0.0 110.746704 -0.75078 2.75142 41.2062 -0.0108395 -21.7153 0.0 20.9159 0.0 -1.05466 -3.76147 1.01308 0.0 0.0 0.0 0.0 0.0 0.0 9.94445 15.1608 17.7657 0.0 0.858165 0.0 -11.239 6.08403 8.52465 0.0 -9.06263 0.0 8.43178 6.62759 8.39712 0.0 10.9558 0.0 14.138 9.914169 -20.1057 0.0 -15.132662 0.0 
  2.5804400634765625 11.839100341796875 10.536300048828124 -55.8539 81.6416 46.326 1.08461 -18.9679 -5.72373 12.7585 29.1326 0.589846 -12.0886 37.6188 2.32022 22.6675 -70.5813 18.3872 -124.6297 2.74618 -10.916 -35.3459 -6.25854 40.4082 0.0 25.6667 0.0 1.95313 -7.2572 0.331094 0.0 0.0 0.0 0.0 0.0 0.0 111.8582 -0.669439 3.62065 41.6065 -0.168014 -21.6911 0.0 21.308 0.0 -1.31642 -3.9044 1.58456 0.0 0.0 0.0 0.0 0.0 0.0 10.1131 15.3988 17.9354 0.0 0.567778 0.0 -11.4874 6.1897297 8.36065 0.0 -8.99751 0.0 8.64503 6.62965 8.61575 0.0 11.0981 0.0 14.1519 9.70737 -20.1416 0.0 -15.137217 0.0 
  2.543800048828125 11.841300048828124 10.536099853515625 -56.776 81.7662 47.2103 0.74721 -18.7713 -6.20052 13.1804 29.2155 0.394599 -12.7683 37.5331 2.96259 22.4567 -70.7035 17.9123 -125.158905 1.9182 -8.46084 -34.9165 -3.67258 40.452 0.0 25.2328 0.0 1.19872 -8.22671 -1.88335 0.0 0.0 0.0 0.0 0.0 0.0 111.7731 -1.06761 3.48328 41.8339 0.278831 -21.6584 0.0 21.847 0.0 -1.89692 -4.03131 1.7246 0.0 0.0 0.0 0.0 0.0 0.0 10.3211 15.2458 18.1235 0.0 0.559231 0.0 -11.6448 6.39382 8.18544 0.0 -9.05168 0.0 8.87299 6.37492 8.90195 0.0 11.2897 0.0 14.1615 9.62359 -20.3176 0.0 -15.040961 0.0 
  2.5026300048828123 11.841700439453126 10.533499755859374 -57.2736 81.8131 47.6656 0.737599 -18.7232 -6.24837 12.9354 29.4227 0.138458 -12.3451 37.6563 2.6552 22.958 -70.6428 18.6282 -124.8274 1.80492 -8.20274 -34.8601 -3.43685 40.1929 0.0 25.1792 0.0 1.15774 -8.34528 -1.90841 0.0 0.0 0.0 0.0 0.0 0.0 111.9087 -1.10204 3.63161 42.2764 0.148389 -21.351 0.0 22.5177 0.0 -2.53054 -4.37602 1.91051 0.0 0.0 0.0 0.0 0.0 0.0 10.5635 15.2091 18.3255 0.0 0.542637 0.0 -11.8233 6.5463696 8.00943 0.0 -9.07603 0.0 9.12773 6.28048 9.15841 0.0 11.3952 0.0 14.1731 9.49478 -20.4577 0.0 -14.797393 0.0 
  2.4585499572753906 11.851500244140626 10.53050048828125 -57.3483 81.8479 47.9838 0.560672 -18.4367 -6.49058 12.8125 29.4163 -0.0927834 -11.8494 38.0415 2.20766 23.7826 -70.781 19.7108 -124.7018 1.81441 -7.74292 -34.49 -3.18813 39.7844 0.0 25.3408 0.0 1.01767 -8.2746 -1.88338 0.0 0.0 0.0 0.0 0.0 0.0 112.08 -1.06302 3.69359 42.5696 -0.0283145 -21.528 0.0 22.9648 0.0 -3.89785 -3.75004 2.79996 0.0 0.0 0.0 0.0 0.0 0.0 10.9158 14.9539 18.2958 0.0 0.787219 0.0 -12.1399 6.61806 7.64096 0.0 -9.10705 0.0 9.39251 6.20606 9.04467 0.0 11.4573 0.0 14.1337 9.39363 -20.518 0.0 -14.509724 0.0 
  2.4103599548339845 11.85300048828125 10.5272998046875 -58.2186 81.9029 48.751 0.623658 -18.3352 -6.39216 12.5611 29.571 -0.191724 -11.3722 38.1553 1.85213 24.5247 -70.7853 20.4924 -124.2914 1.73714 -7.9161 -34.4158 -3.24172 39.7133 0.0 25.5749 0.0 1.11921 -8.13516 -1.6719 0.0 0.0 0.0 0.0 0.0 0.0 112.2359 -1.17328 3.84192 42.8944 -0.194386 -21.6962 0.0 23.6061 0.0 -5.47087 -3.67145 3.07761 0.0 0.0 0.0 0.0 0.0 0.0 11.2183 14.8589 18.5955 0.0 0.838411 0.0 -12.371 6.7395496 7.43191 0.0 -9.131559 0.0 9.68368 6.13786 9.37467 0.0 11.4321 0.0 14.1634 9.3036995 -20.6059 0.0 -14.051625 0.0 
  2.3591700744628907 11.854300537109374 10.52469970703125 -58.8892 81.9351 49.3419 0.721297 -18.1801 -6.25328 12.2684 29.6438 -0.251699 -10.9435 38.4877 1.54165 25.6418 -70.895 21.5516 -123.9283 1.59116 -7.75862 -34.3055 -3.08293 39.1574 0.0 25.8215 0.0 1.40214 -7.84089 -1.35195 0.0 0.0 0.0 0.0 0.0 0.0 112.4193 -1.20158 3.77938 43.1552 -0.354232 -21.8496 0.0 24.146 0.0 -7.26868 -3.43515 3.30998 0.0 0.0 0.0 0.0 0.0 0.0 11.5451 14.7736 18.8685 0.0 0.926294 0.0 -12.589 6.88371 7.25331 0.0 -9.17238 0.0 9.96526 6.18686 9.53495 0.0 11.2299 0.0 14.132 9.33497 -20.6022 0.0 -13.66579 0.0 
  2.30718994140625 11.85949951171875 10.521800537109375 -59.9548 82.0311 50.3591 0.774423 -18.0401 -6.15884 12.0724 29.7273 -0.291852 -10.5371 38.6989 1.22074 26.4508 -70.9288 22.2555 -123.5558 1.47583 -7.64857 -34.3531 -3.03308 37.9253 0.0 26.0505 0.0 1.86463 -7.14578 -1.89794 0.0 0.0 0.0 0.0 0.0 0.0 112.4972 -1.17349 3.77875 43.4256 -0.538527 -21.944 0.0 24.5891 0.0 -8.86279 -3.30231 3.76747 0.0 0.0 0.0 0.0 0.0 0.0 11.8544 14.5454 18.9484 0.0 1.05057 0.0 -12.6669 6.96282 7.45237 0.0 -9.131121 0.0 10.2431 6.14526 9.76356 0.0 11.0148 0.0 14.2032 9.32147 -20.6585 0.0 -13.27578 0.0 
  2.2531300354003907 11.866800537109375 10.519300537109375 -60.9599 82.113 51.3368 0.751233 -17.7795 -6.14342 12.0703 29.7546 -0.26222 -10.4534 38.9885 1.17515 27.3811 -71.1244 22.8295 -123.3177 1.33661 -7.59942 -34.4464 -3.05903 35.879 0.0 26.2795 0.0 2.05197 -6.76853 -3.63698 0.0 0.0 0.0 0.0 0.0 0.0 112.5005 -1.20902 3.78062 43.623 -0.670079 -21.9799 0.0 24.9239 0.0 -10.0819 -3.00639 4.72003 0.0 0.0 0.0 0.0 0.0 0.0 12.219 14.2843 19.2646 0.0 1.26568 0.0 -12.7912 7.11059 7.19852 0.0 -9.16403 0.0 10.5254 6.1403 9.9132 0.0 10.7423 0.0 14.2424 9.35203 -20.6659 0.0 -12.943171 0.0 
  2.198899993896484 11.87489990234375 10.51760009765625 -61.8447 82.197 52.318 0.640187 -17.5191 -6.23082 12.2266 29.8378 -0.245311 -10.4009 39.2571 1.08903 27.9849 -71.2701 23.0062 -123.1976 1.15106 -7.40683 -34.6583 -2.82801 32.9565 0.0 26.3277 0.0 1.39406 -6.86723 -7.17145 0.0 0.0 0.0 0.0 0.0 0.0 112.3685 -1.20807 3.61971 43.8456 -0.714888 -21.6745 0.0 25.1921 0.0 -11.1439 -3.10348 6.00151 0.0 0.0 0.0 0.0 0.0 0.0 12.6047 13.9604 19.3585 0.0 1.53389 0.0 -12.952 7.24732 7.04591 0.0 -9.21111 0.0 10.7972 6.22945 10.0948 0.0 10.2765 0.0 14.3392 9.44324 -20.7962 0.0 -12.7868 0.0 
  2.146920013427734 11.87739990234375 10.515899658203125 -62.9408 82.3829 53.8421 0.556953 -17.4631 -6.39344 12.1952 29.9678 -0.465544 -10.2054 39.5888 0.902806 28.6312 -71.319 23.3869 -122.8266 0.918281 -7.15393 -35.0757 -2.61803 30.107 0.0 26.1869 0.0 1.6211 -6.38501 -10.3018 0.0 0.0 0.0 0.0 0.0 0.0 112.3646 -1.10375 3.28864 43.9429 -0.666193 -21.2346 0.0 25.3774 0.0 -11.7843 -3.09763 7.52106 0.0 0.0 0.0 0.0 0.0 0.0 12.9806 13.4239 19.1439 0.0 1.87716 0.0 -13.0624 7.36356 6.93197 0.0 -9.31724 0.0 10.9942 6.31183 9.67508 0.0 9.68634 0.0 14.23 9.60063 -20.7071 0.0 -12.39533 0.0 
